<svg xmlns="http://www.w3.org/2000/svg" xmlns:svg="http://www.w3.org/2000/svg" id="svg2176" width="266" height="266" version="1.1" viewBox="0 0 70.379 70.379"><defs id="defs2170"><clipPath id="clipPath1492" clipPathUnits="userSpaceOnUse"><path id="path1490" d="m 49.616,55.514 h 85.115 v 68.57 H 49.616 Z"/></clipPath></defs><metadata id="metadata2173"/><g id="layer1" transform="translate(0,-226.62082)"><path d="m 9.4304868,227.94346 c 0,0 -8.1076333,0 -8.1076333,8.10673 v 51.52042 c 0,0 0,8.10674 8.1076333,8.10674 H 60.94948 c 0,0 8.107206,0 8.107206,-8.10674 v -51.52042 c 0,0 0,-8.10673 -8.107206,-8.10673 z" style="display:inline;fill:#093251;fill-opacity:1;fill-rule:nonzero;stroke:#fff;stroke-width:2.64530444;stroke-miterlimit:4;stroke-dasharray:none;stroke-opacity:1" id="path1484"/><g id="g876"><path d="M 40.633085,247.17157 H 27.505009 l -1.087531,6.08069 11.846695,0.0141 c 5.833894,-0.002 7.55934,2.11785 7.509383,5.6315 -0.02519,1.80188 -0.806148,4.84671 -1.143466,5.8339 -0.898803,2.63151 -2.745085,5.63321 -9.669926,5.62211 l -11.515781,-0.005 -1.089665,6.08667 h 13.098187 c 4.619549,0 6.583679,-0.53715 8.666084,-1.49872 4.612718,-2.13108 7.357803,-6.68359 8.457289,-12.62508 1.637487,-8.8467 -0.402646,-15.14046 -11.943193,-15.14046" style="fill:#fff;fill-opacity:1;fill-rule:nonzero;stroke:none;stroke-width:.42698485" id="path1496"/><path d="m 21.840927,258.75042 c -3.438509,0 -3.93125,2.24082 -4.257466,3.59521 -0.425277,1.77327 -0.565328,2.49103 -0.565328,2.49103 h 13.441056 c 3.439363,0 3.932104,-2.24081 4.257466,-3.59521 0.426131,-1.77327 0.566182,-2.49103 0.566182,-2.49103 z" style="fill:#fff;fill-opacity:1;fill-rule:nonzero;stroke:none;stroke-width:.42698485" id="path1504"/></g></g></svg>